<svg width="25" height="24" viewBox="0 0 25 24" fill="none" xmlns="http://www.w3.org/2000/svg">
<path fill-rule="evenodd" clip-rule="evenodd" d="M23.6046 17C23.6046 17.6 23.2038 18 22.6027 18H2.56441C1.96326 18 1.5625 17.6 1.5625 17C1.5625 16.4 1.96326 16 2.56441 16C3.66652 16 4.56824 15.1 4.56824 14V9C4.56824 4.6 8.17512 1 12.5835 1C16.992 1 20.5988 4.6 20.5988 9V14C20.5988 15.1 21.5006 16 22.6027 16C23.2038 16 23.6046 16.4 23.6046 17ZM15.1885 21.5C14.5874 22.5 13.5854 23 12.5835 23C12.0826 23 11.5816 22.9 11.0807 22.6C10.5797 22.3 10.2791 22 9.97856 21.5C9.67799 21 9.87837 20.4 10.3793 20.1C10.8803 19.8 11.4814 20 11.782 20.5C11.8123 20.5303 11.8427 20.5697 11.8758 20.6128C11.9521 20.7119 12.0431 20.8303 12.1828 20.9C12.6837 21.2 13.2849 21 13.5854 20.5C13.886 20 14.4872 19.9 14.9881 20.1C15.4891 20.3 15.4891 21 15.1885 21.5ZM18.595 14C18.595 14.7 18.7954 15.4 19.096 16H6.07111C6.37168 15.4 6.57206 14.7 6.57206 14V9C6.57206 5.7 9.27723 3 12.5835 3C15.8898 3 18.595 5.7 18.595 9V14Z" fill="#FFAC3F"/>
<mask id="mask0_533_56286" style="mask-type:alpha" maskUnits="userSpaceOnUse" x="1" y="1" width="23" height="22">
<path fill-rule="evenodd" clip-rule="evenodd" d="M23.6046 17C23.6046 17.6 23.2038 18 22.6027 18H2.56441C1.96326 18 1.5625 17.6 1.5625 17C1.5625 16.4 1.96326 16 2.56441 16C3.66652 16 4.56824 15.1 4.56824 14V9C4.56824 4.6 8.17512 1 12.5835 1C16.992 1 20.5988 4.6 20.5988 9V14C20.5988 15.1 21.5006 16 22.6027 16C23.2038 16 23.6046 16.4 23.6046 17ZM15.1885 21.5C14.5874 22.5 13.5854 23 12.5835 23C12.0826 23 11.5816 22.9 11.0807 22.6C10.5797 22.3 10.2791 22 9.97856 21.5C9.67799 21 9.87837 20.4 10.3793 20.1C10.8803 19.8 11.4814 20 11.782 20.5C11.8123 20.5303 11.8427 20.5697 11.8758 20.6128C11.9521 20.7119 12.0431 20.8303 12.1828 20.9C12.6837 21.2 13.2849 21 13.5854 20.5C13.886 20 14.4872 19.9 14.9881 20.1C15.4891 20.3 15.4891 21 15.1885 21.5ZM18.595 14C18.595 14.7 18.7954 15.4 19.096 16H6.07111C6.37168 15.4 6.57206 14.7 6.57206 14V9C6.57206 5.7 9.27723 3 12.5835 3C15.8898 3 18.595 5.7 18.595 9V14Z" fill="white"/>
</mask>
<g mask="url(#mask0_533_56286)">
<rect x="0.560547" width="24.0459" height="24" fill="#FFAC3F"/>
</g>
</svg>
